<?xml version="1.0" encoding="utf-8"?>
<!-- Generator: Adobe Illustrator 21.1.0, SVG Export Plug-In . SVG Version: 6.00 Build 0)  -->
<svg version="1.1" id="Layer_1" xmlns="http://www.w3.org/2000/svg" xmlns:xlink="http://www.w3.org/1999/xlink" x="0px" y="0px"
	 viewBox="0 0 326 224" style="enable-background:new 0 0 326 224;" xml:space="preserve">
<style type="text/css">
	path { fill: white;}
</style>
<g>
	<path class="st0" d="M11.5,94.2h57.8v3.6H5.8l-0.5-1l58.3-85.2H8.4V8h61l0.5,1.1L11.5,94.2z"/>
	<path class="st0" d="M93.3,97.7V8h48.9v3.6H97.3v39h40.5v3.4H97.3v40.3h44.8v3.6H93.3z"/>
	<path class="st0" d="M217,97.7l-25.1-37.6c-2.8,0.6-6,0.9-9.6,0.9c-1.7,0-3.7-0.1-6-0.2c-2.3-0.2-4.2-0.4-5.8-0.6v37.6h-4V8.8
		c3.3-0.4,6.3-0.8,8.9-1c2.6-0.3,5.6-0.4,8.8-0.4c10.6,0,18.8,2.4,24.7,7.1c5.8,4.7,8.8,11.1,8.8,19.2c0,6-1.9,11.4-5.7,15.9
		c-3.8,4.6-9.2,7.8-16.2,9.7l26,38.5H217z M213.5,33.7c0-3.3-0.6-6.4-1.8-9.2c-1.2-2.8-3.1-5.2-5.5-7.2c-2.4-2-5.5-3.6-9.2-4.7
		c-3.7-1.1-7.9-1.7-12.7-1.7c-2.5,0-4.8,0.1-6.7,0.2c-2,0.2-4.3,0.4-7,0.9v44.6c1.6,0.2,3.5,0.5,5.6,0.7c2.1,0.2,4.2,0.3,6.1,0.3
		c4.8,0,9.1-0.6,13-1.7c3.8-1.1,7.1-2.7,9.8-4.8s4.8-4.6,6.2-7.5C212.8,40.7,213.5,37.4,213.5,33.7z"/>
	<path class="st0" d="M320.7,52.9c0,6.5-1.1,12.6-3.4,18.2c-2.2,5.6-5.3,10.4-9.2,14.5c-3.9,4.1-8.6,7.3-14,9.6
		c-5.4,2.3-11.2,3.5-17.5,3.5c-6.3,0-12.1-1.2-17.5-3.5c-5.4-2.3-10-5.5-14-9.6c-3.9-4.1-7-8.9-9.2-14.5c-2.2-5.6-3.4-11.7-3.4-18.2
		c0-6.5,1.1-12.6,3.4-18.2c2.2-5.6,5.3-10.5,9.2-14.6c3.9-4.1,8.6-7.3,14-9.7c5.4-2.3,11.2-3.5,17.5-3.5c6.3,0,12.1,1.2,17.5,3.5
		s10,5.6,14,9.7c3.9,4.1,7,9,9.2,14.6C319.6,40.3,320.7,46.4,320.7,52.9z M316.5,52.9c0-6-1-11.6-3-16.8c-2-5.1-4.8-9.6-8.3-13.5
		c-3.6-3.8-7.8-6.8-12.6-9c-4.9-2.2-10.2-3.2-16-3.2c-5.8,0-11.1,1.1-16,3.2c-4.9,2.2-9.1,5.2-12.6,9c-3.6,3.8-6.3,8.3-8.3,13.5
		c-2,5.1-3,10.7-3,16.8c0,6,1,11.5,3,16.7c2,5.2,4.8,9.7,8.3,13.4c3.6,3.8,7.8,6.7,12.6,8.9c4.9,2.2,10.2,3.2,16,3.2
		c5.8,0,11.1-1.1,16-3.2c4.9-2.2,9.1-5.1,12.6-8.9c3.6-3.8,6.3-8.2,8.3-13.4C315.5,64.4,316.5,58.9,316.5,52.9z"/>
	<path class="st1" d="M47.1,154.3c-2,1.3-4.4,2.4-7.1,3.2c-2.7,0.9-5.6,1.3-8.6,1.3c-3.8,0-7.3-0.6-10.5-1.9c-3.2-1.3-5.9-3-8.2-5.2
		c-2.3-2.2-4.1-4.9-5.4-7.9c-1.3-3-1.9-6.4-1.9-10c0-3.6,0.6-6.9,1.9-9.9c1.3-3.1,3.1-5.7,5.4-8c2.3-2.2,5.1-4,8.2-5.2
		c3.2-1.3,6.7-1.9,10.5-1.9c3,0,5.9,0.4,8.5,1.3c2.6,0.8,5,1.9,7.1,3.2l-2.8,7c-1.9-1.1-4-2-6.3-2.7c-2.2-0.7-4.4-1-6.6-1
		c-2.6,0-5,0.4-7.1,1.3c-2.1,0.8-3.9,2-5.4,3.5c-1.5,1.5-2.6,3.3-3.4,5.5c-0.8,2.1-1.2,4.5-1.2,7c0,2.6,0.4,4.9,1.2,7
		c0.8,2.1,2,3.9,3.5,5.4c1.5,1.5,3.3,2.7,5.4,3.5c2.1,0.8,4.5,1.3,7.2,1.3c2.2,0,4.4-0.4,6.7-1.1c2.3-0.7,4.5-1.6,6.5-2.8
		L47.1,154.3z"/>
	<path class="st1" d="M94.9,158.1L90.2,147H71l-4.7,11.1h-8.5l22.3-49h1.2l22.2,49H94.9z M80.6,124.3l-6.9,16.2h13.7L80.6,124.3z"/>
	<path class="st1" d="M142.7,158.1l-10.6-17.4c-0.4,0-0.9,0.1-1.3,0.1s-0.8,0-1.3,0c-0.8,0-1.6,0-2.4,0c-0.8,0-1.6-0.1-2.4-0.1v17.5
		h-8.2v-47.9c1.9-0.2,3.9-0.4,6-0.6c2-0.2,4.3-0.2,6.8-0.2c3.4,0,6.4,0.4,8.9,1.2c2.5,0.8,4.5,1.9,6.2,3.2c1.6,1.4,2.8,3,3.6,4.8
		c0.8,1.8,1.2,3.9,1.2,6c0,3.2-0.8,6-2.4,8.4c-1.6,2.4-4,4.3-7,5.6l12.7,19.5H142.7z M140.4,125c0-2.5-0.9-4.5-2.6-6
		c-1.8-1.5-4.2-2.3-7.4-2.3c-1,0-2,0-2.9,0.1c-0.9,0-1.8,0.2-2.6,0.3v16.5c0.7,0.1,1.5,0.2,2.3,0.2c0.8,0,1.6,0.1,2.4,0.1
		c3.6,0,6.3-0.8,8.1-2.4C139.5,130,140.4,127.8,140.4,125z"/>
	<path class="st1" d="M199.9,144.6c0,1.8-0.4,3.5-1.3,5.2c-0.8,1.7-2.1,3.2-3.7,4.5c-1.7,1.3-3.7,2.3-6.1,3.1
		c-2.4,0.8-5.3,1.2-8.5,1.2c-2.1,0-4.2-0.1-6.5-0.3c-2.3-0.2-4.5-0.4-6.6-0.7v-47.4c1.8-0.3,3.8-0.5,6.1-0.7
		c2.2-0.2,4.4-0.3,6.3-0.3c3.2,0,5.9,0.4,8.3,1.1c2.4,0.7,4.4,1.6,5.9,2.8s2.8,2.5,3.6,4.1c0.8,1.5,1.2,3.1,1.2,4.7
		c0,2.6-0.7,4.7-1.9,6.6c-1.3,1.8-3.5,3.3-6.5,4.5c3.6,1,6.1,2.5,7.6,4.6C199.2,139.6,199.9,142,199.9,144.6z M190.1,123.4
		c0-2-0.7-3.7-2.2-5c-1.5-1.3-3.8-1.9-6.8-1.9c-1,0-2,0-3,0.1c-1,0.1-1.9,0.2-2.7,0.3v13.4c1.2,0.1,2.8,0.2,4.9,0.2
		c1.8,0,3.3-0.2,4.5-0.6c1.3-0.4,2.3-0.9,3.1-1.5c0.8-0.6,1.4-1.4,1.7-2.2C189.9,125.3,190.1,124.4,190.1,123.4z M191.1,143.8
		c0-2.1-0.9-3.9-2.7-5.3c-1.8-1.4-4.5-2.1-8.1-2.1c-0.9,0-1.8,0-2.7,0c-0.9,0-1.7,0.1-2.3,0.2v14.5c0.8,0.1,1.7,0.2,2.7,0.2
		c1,0.1,2,0.1,3.2,0.1c3.3,0,5.8-0.7,7.4-2.1C190.2,147.9,191.1,146.1,191.1,143.8z"/>
	<path class="st1" d="M262.9,133.9c0,3.6-0.6,6.9-1.9,9.9c-1.3,3.1-3,5.7-5.2,7.9c-2.2,2.2-4.8,4-7.8,5.2c-3,1.3-6.2,1.9-9.8,1.9
		c-3.5,0-6.7-0.6-9.7-1.9c-3-1.3-5.5-3-7.7-5.2c-2.2-2.2-3.8-4.9-5-7.9c-1.2-3.1-1.8-6.4-1.8-9.9c0-3.6,0.6-6.9,1.9-10
		c1.3-3.1,3-5.7,5.2-7.9c2.2-2.2,4.8-4,7.9-5.2c3-1.3,6.3-1.9,9.7-1.9c3.5,0,6.8,0.6,9.7,1.9c2.9,1.3,5.5,3,7.7,5.2
		c2.2,2.2,3.8,4.9,5,7.9C262.3,127,262.9,130.3,262.9,133.9z M254,133.9c0-2.5-0.4-4.8-1.2-7c-0.8-2.2-1.8-4-3.2-5.6
		c-1.4-1.6-3-2.8-4.9-3.7c-1.9-0.9-4-1.3-6.3-1.3c-2.3,0-4.4,0.4-6.3,1.3c-1.9,0.9-3.6,2.1-5,3.7c-1.4,1.6-2.4,3.5-3.2,5.6
		c-0.8,2.2-1.2,4.5-1.2,7c0,2.5,0.4,4.8,1.2,7c0.8,2.2,1.8,4,3.2,5.6c1.4,1.6,3,2.8,5,3.7c1.9,0.9,4,1.4,6.3,1.4
		c2.3,0,4.4-0.5,6.3-1.4c1.9-0.9,3.6-2.1,4.9-3.7c1.4-1.6,2.4-3.4,3.2-5.6C253.7,138.8,254,136.5,254,133.9z"/>
	<path class="st1" d="M315.9,159l-30.3-31.9v31h-8.2v-49l1.3-0.3l29.9,31.5v-30.6h8.2v49.1L315.9,159z"/>
	<path class="st1" d="M39.3,183.9c0,2.5-0.4,4.7-1.3,6.8c-0.9,2.1-2.1,3.8-3.7,5.3c-1.6,1.5-3.6,2.6-6,3.5c-2.4,0.8-5.1,1.3-8.2,1.3
		c-0.8,0-1.6,0-2.4-0.1c-0.8,0-1.6-0.1-2.4-0.1v15.8H6.9v-47.9c4.3-0.5,8.4-0.8,12.3-0.8c3.3,0,6.2,0.4,8.7,1.3
		c2.5,0.9,4.6,2,6.3,3.5c1.7,1.5,3,3.2,3.8,5.2C38.9,179.6,39.3,181.7,39.3,183.9z M30.7,184.2c0-1.2-0.2-2.3-0.6-3.4
		c-0.4-1.1-1-2-1.9-2.9c-0.8-0.8-1.9-1.5-3.2-2c-1.3-0.5-2.8-0.7-4.4-0.7c-1.9,0-3.7,0.1-5.4,0.4v17.7c0.8,0.1,1.6,0.2,2.4,0.2
		c0.7,0,1.5,0.1,2.2,0.1c3.7,0,6.5-0.9,8.2-2.6C29.8,189.2,30.7,187,30.7,184.2z"/>
	<path class="st1" d="M77.3,216.4l-10.6-17.4c-0.4,0-0.9,0.1-1.3,0.1s-0.8,0-1.3,0c-0.8,0-1.6,0-2.4,0c-0.8,0-1.6-0.1-2.4-0.1v17.5
		h-8.2v-47.9c1.9-0.2,3.9-0.4,6-0.6c2-0.2,4.3-0.2,6.8-0.2c3.4,0,6.4,0.4,8.9,1.2c2.5,0.8,4.5,1.9,6.2,3.2c1.6,1.4,2.8,3,3.6,4.8
		c0.8,1.8,1.2,3.9,1.2,6c0,3.2-0.8,6-2.4,8.4c-1.6,2.4-4,4.3-7,5.6l12.7,19.5H77.3z M75,183.3c0-2.5-0.9-4.5-2.6-6
		c-1.8-1.5-4.2-2.3-7.4-2.3c-1,0-2,0-2.9,0.1c-0.9,0-1.8,0.2-2.6,0.3v16.5c0.7,0.1,1.5,0.2,2.3,0.2c0.8,0,1.6,0.1,2.4,0.1
		c3.6,0,6.3-0.8,8.1-2.4C74.1,188.2,75,186.1,75,183.3z"/>
	<path class="st1" d="M143.6,192.2c0,3.6-0.6,6.9-1.9,9.9c-1.3,3.1-3,5.7-5.2,7.9c-2.2,2.2-4.8,4-7.8,5.2c-3,1.3-6.2,1.9-9.8,1.9
		c-3.5,0-6.7-0.6-9.7-1.9c-3-1.3-5.5-3-7.7-5.2c-2.2-2.2-3.8-4.9-5-7.9c-1.2-3.1-1.8-6.4-1.8-9.9c0-3.6,0.6-6.9,1.9-10
		c1.3-3.1,3-5.7,5.2-7.9c2.2-2.2,4.8-4,7.9-5.2c3-1.3,6.3-1.9,9.7-1.9c3.5,0,6.8,0.6,9.7,1.9c2.9,1.3,5.5,3,7.7,5.2
		c2.2,2.2,3.8,4.9,5,7.9C143,185.3,143.6,188.6,143.6,192.2z M134.7,192.2c0-2.5-0.4-4.8-1.2-7c-0.8-2.2-1.8-4-3.2-5.6
		c-1.4-1.6-3-2.8-4.9-3.7c-1.9-0.9-4-1.3-6.3-1.3c-2.3,0-4.4,0.4-6.3,1.3c-1.9,0.9-3.6,2.1-4.9,3.7c-1.4,1.6-2.4,3.5-3.2,5.6
		c-0.8,2.2-1.2,4.5-1.2,7c0,2.5,0.4,4.8,1.2,7c0.8,2.2,1.8,4,3.2,5.6c1.4,1.6,3,2.8,4.9,3.7c1.9,0.9,4,1.4,6.3,1.4
		c2.3,0,4.4-0.5,6.3-1.4c1.9-0.9,3.6-2.1,4.9-3.7c1.4-1.6,2.4-3.4,3.2-5.6C134.4,197,134.7,194.7,134.7,192.2z"/>
	<path class="st1" d="M175.5,200.8c0,2.4-0.3,4.6-0.9,6.6c-0.6,2-1.5,3.7-2.8,5.2c-1.3,1.5-2.9,2.6-4.8,3.4c-2,0.8-4.3,1.2-7,1.2
		c-2.4,0-4.5-0.3-6.4-0.9c-1.9-0.6-3.7-1.4-5.4-2.6l3.1-6.7c1.1,0.8,2.5,1.4,4,1.9c1.5,0.5,3,0.7,4.6,0.7c2.6,0,4.5-0.8,5.6-2.3
		c1.2-1.5,1.7-3.9,1.7-7.1V168h8.2V200.8z"/>
	<path class="st1" d="M193.2,216.4V168h29.5v7.5h-21.3v12.7h19.2v7.3h-19.2v13.4h21.3v7.5H193.2z"/>
	<path class="st1" d="M273.2,212.6c-2,1.3-4.4,2.4-7.1,3.2c-2.7,0.9-5.6,1.3-8.6,1.3c-3.8,0-7.3-0.6-10.5-1.9
		c-3.2-1.3-5.9-3-8.2-5.2c-2.3-2.2-4.1-4.9-5.4-7.9c-1.3-3-1.9-6.4-1.9-10c0-3.6,0.6-6.9,1.9-9.9c1.3-3.1,3.1-5.7,5.4-8
		c2.3-2.2,5.1-4,8.2-5.2c3.2-1.3,6.7-1.9,10.5-1.9c3,0,5.9,0.4,8.5,1.3c2.6,0.8,5,1.9,7.1,3.2l-2.8,7c-1.9-1.1-4-2-6.3-2.7
		c-2.2-0.7-4.4-1-6.6-1c-2.6,0-5,0.4-7.1,1.3c-2.1,0.8-3.9,2-5.4,3.5c-1.5,1.5-2.6,3.3-3.4,5.5c-0.8,2.1-1.2,4.5-1.2,7
		c0,2.6,0.4,4.9,1.2,7c0.8,2.1,2,3.9,3.5,5.4c1.5,1.5,3.3,2.7,5.4,3.5c2.1,0.8,4.5,1.3,7.2,1.3c2.2,0,4.4-0.4,6.7-1.1
		c2.3-0.7,4.5-1.6,6.5-2.8L273.2,212.6z"/>
	<path class="st1" d="M305.1,175.5v40.9h-8.2v-40.9h-15.4V168h38.9v7.5H305.1z"/>
</g>
</svg>
